<?xml version="1.0" encoding="UTF-8"?>
<svg version="1.1" xmlns="http://www.w3.org/2000/svg" width="459" height="459">
<path d="M0 0 C3.3 0 6.6 0 10 0 C10.39832031 1.30324219 10.39832031 1.30324219 10.8046875 2.6328125 C11.15789062 3.78523438 11.51109375 4.93765625 11.875 6.125 C12.22304687 7.26195313 12.57109375 8.39890625 12.9296875 9.5703125 C13.91502018 12.72769241 14.94344606 15.86585259 16 19 C16.8968714 21.6906142 17.27859126 23.88897096 17.5625 26.6875 C17.64628906 27.49574219 17.73007813 28.30398437 17.81640625 29.13671875 C17.87699219 29.75160156 17.93757813 30.36648437 18 31 C18.66 31 19.32 31 20 31 C20.2165625 32.9490625 20.2165625 32.9490625 20.4375 34.9375 C20.5303125 35.75476563 20.623125 36.57203125 20.71875 37.4140625 C20.9015361 39.09467913 21.06907105 40.77704937 21.21875 42.4609375 C21.32703125 43.62496094 21.32703125 43.62496094 21.4375 44.8125 C21.49808594 45.52019531 21.55867188 46.22789062 21.62109375 46.95703125 C22.04714159 49.25417577 22.8982472 50.95022734 24 53 C24.6875 55.1875 24.6875 55.1875 25 57 C24.67 57.33 24.34 57.66 24 58 C24.309375 58.5775 24.61875 59.155 24.9375 59.75 C26.75006046 63.58836333 27.11763448 66.76515874 27 71 C27.66 71 28.32 71 29 71 C28.95875 72.19625 28.9175 73.3925 28.875 74.625 C28.875 79.8318646 30.10102777 83.65154165 33 88 C33.1953125 90.26171875 33.1953125 90.26171875 33.125 92.6875 C33.10695313 93.49574219 33.08890625 94.30398437 33.0703125 95.13671875 C33.04710937 95.75160156 33.02390625 96.36648437 33 97 C33.66 97 34.32 97 35 97 C35.06058594 97.60328125 35.12117188 98.2065625 35.18359375 98.828125 C35.26738281 99.62734375 35.35117188 100.4265625 35.4375 101.25 C35.51871094 102.03890625 35.59992188 102.8278125 35.68359375 103.640625 C35.97634993 105.82364639 36.42064419 107.8773182 37 110 C37.33 110 37.66 110 38 110 C37.94199219 111.2065625 37.88398438 112.413125 37.82421875 113.65625 C37.82802403 120.13030796 39.33818547 126.22632116 40.8125 132.5 C41.07353516 133.69109375 41.33457031 134.8821875 41.60351562 136.109375 C41.86455078 137.23859375 42.12558594 138.3678125 42.39453125 139.53125 C42.74801636 141.07135742 42.74801636 141.07135742 43.10864258 142.64257812 C43.40279053 143.42052734 43.69693848 144.19847656 44 145 C44.99 145.33 45.98 145.66 47 146 C46.814375 147.216875 46.62875 148.43375 46.4375 149.6875 C46.01006818 153.02977939 46.07741117 155.71968417 47 159 C47.66 159 48.32 159 49 159 C49 161.64 49 164.28 49 167 C49.66 167.33 50.32 167.66 51 168 C52.60957035 173.00755219 52.97228827 176.87832433 52.8046875 182.1484375 C53.26546858 188.87584129 55.32534502 195.48828355 57 202 C57.33 202 57.66 202 58 202 C58.99 199.03 58.99 199.03 60 196 C60.66 196 61.32 196 62 196 C63.07033332 192.41553878 63.07033332 192.41553878 61.9375 189 C61 187 61 187 61.875 184.25 C62.24625 183.5075 62.6175 182.765 63 182 C63.66 182 64.32 182 65 182 C65 179.03 65 176.06 65 173 C65.66 173 66.32 173 67 173 C67.59332061 168.62426048 68.13827236 164.42471556 68 160 C68.66 160 69.32 160 70 160 C70 157.03 70 154.06 70 151 C70.66 151 71.32 151 72 151 C73.83661009 142.81334425 75.66282858 134.62446702 77.47612 126.43261814 C78.31858136 122.62817225 79.16449217 118.8245649 80.01855469 115.02270508 C80.84388381 111.34813911 81.6598004 107.67159453 82.4694519 103.99354362 C82.77870933 102.59632119 83.09125236 101.19982147 83.40725708 99.80410957 C85.0793404 92.40879489 86.40711141 85.59335487 86 78 C86.66 78 87.32 78 88 78 C87.9690625 76.0509375 87.9690625 76.0509375 87.9375 74.0625 C87.91600546 72.70834367 87.92851801 71.35243917 88 70 C88.33 69.67 88.66 69.34 89 69 C89.27953219 66.9412232 89.44734351 64.88271568 89.62109375 62.8125 C89.74613281 62.214375 89.87117187 61.61625 90 61 C90.66 60.67 91.32 60.34 92 60 C91.95875 58.88625 91.9175 57.7725 91.875 56.625 C92 53 92 53 94 51 C95.30261224 46.73482394 96.16807937 42.35421781 97.125 38 C97.40214844 36.80503906 97.67929687 35.61007813 97.96484375 34.37890625 C99.34742271 28.1607063 100.24850564 22.43053246 100.03857422 16.05957031 C99.99152637 13.54757267 100.37334638 11.30328279 101 8.875 C101.185625 8.12992188 101.37125 7.38484375 101.5625 6.6171875 C101.706875 6.08351563 101.85125 5.54984375 102 5 C102.66 5 103.32 5 104 5 C104 4.01 104 3.02 104 2 C105.07297333 2.00222061 106.14594666 2.00444122 107.25143433 2.00672913 C117.34608519 2.02697034 127.44073196 2.04197688 137.53539848 2.05181217 C142.72559325 2.0570385 147.91577167 2.06413164 153.10595703 2.07543945 C158.11150397 2.08627718 163.11703516 2.09227873 168.12259293 2.09487724 C170.03562798 2.09672989 171.94866214 2.10034744 173.86169052 2.10573006 C176.53395219 2.11295221 179.20614816 2.11399044 181.87841797 2.11352539 C182.67539093 2.11712067 183.47236389 2.12071594 184.29348755 2.12442017 C188.2762996 2.20526721 188.2762996 2.20526721 192 1 C192 90.43 192 179.86 192 272 C191.01 272.33 190.02 272.66 189 273 C188.67 273.66 188.34 274.32 188 275 C170.18 274.67 152.36 274.34 134 274 C133.67 273.01 133.34 272.02 133 271 C132.34 271 131.68 271 131 271 C130.67 211.27 130.34 151.54 130 90 C127.60544866 94.78910268 126.52228828 99.43428447 125.3125 104.625 C125.07466797 105.57246094 124.83683594 106.51992187 124.59179688 107.49609375 C123.08415868 113.9599267 122.90100567 119.45253339 124 126 C123.34 126 122.68 126 122 126 C121.92652344 126.8353125 121.92652344 126.8353125 121.8515625 127.6875 C121.33444423 132.96567265 120.39537537 137.88362365 119 143 C118.34 143 117.68 143 117 143 C114.60187807 151.91129095 114.60187807 151.91129095 113.9375 161.0625 C113.99822411 164.88811865 113.74688518 165.85953226 112 169 C111.01429814 172.05567577 110.91106825 174.7984571 111 178 C110.34 178 109.68 178 109 178 C108.83126522 179.43725871 108.66509263 180.87481838 108.5 182.3125 C108.4071875 183.11300781 108.314375 183.91351563 108.21875 184.73828125 C107.95186537 187.11896555 107.95186537 187.11896555 108 190 C107.34 190.33 106.68 190.66 106 191 C106.20625 191.928125 106.4125 192.85625 106.625 193.8125 C107 197 107 197 105 200 C103.51470344 204.43647405 103.63120515 209.17595658 103.37890625 213.80859375 C103.01349166 216.88636409 102.29247398 219.20051184 101 222 C100.34 222 99.68 222 99 222 C97.05789567 229.47941368 95.60636312 236.25847464 96 244 C95.34 244 94.68 244 94 244 C93.15771542 247.56044445 92.32776097 251.12365344 91.5 254.6875 C91.26152344 255.69490234 91.02304688 256.70230469 90.77734375 257.74023438 C90.55175781 258.71669922 90.32617188 259.69316406 90.09375 260.69921875 C89.77954102 262.04246216 89.77954102 262.04246216 89.45898438 263.4128418 C89.00005488 265.99969065 88.91738029 268.37888974 89 271 C86.40672157 272.29663922 84.53591932 272.12003569 81.63232422 272.11352539 C80.51131317 272.11344986 79.39030212 272.11337433 78.23532104 272.11329651 C77.02071198 272.10813522 75.80610291 272.10297394 74.5546875 272.09765625 C72.69446457 272.09553383 72.69446457 272.09553383 70.79666138 272.09336853 C67.49881867 272.08871096 64.20102454 272.07972439 60.90319824 272.06866455 C57.53833613 272.05843731 54.17346692 272.05386809 50.80859375 272.04882812 C44.20571007 272.03778269 37.60285901 272.02103247 31 272 C29.25434889 268.78360346 28.795563 266.67986596 29 263 C28.01 263 27.02 263 26 263 C26.04125 261.865625 26.0825 260.73125 26.125 259.5625 C26.125 254.94113212 25.5499837 250.37248488 24 246 C23.34 245.67 22.68 245.34 22 245 C22.0928125 243.43765625 22.0928125 243.43765625 22.1875 241.84375 C22.1875 235.55406906 20.48210024 229.57527577 19 223.5 C18.71382813 222.29601562 18.42765625 221.09203125 18.1328125 219.8515625 C17.4298303 216.89903728 16.71870514 213.94872995 16 211 C15.34 211 14.68 211 14 211 C13.6550855 209.66961551 13.32483418 208.33542939 13 207 C12.814375 206.2575 12.62875 205.515 12.4375 204.75 C12 202 12 202 12.09570312 198.41015625 C12.11735635 193.64536438 11.14976828 189.29981439 10.03125 184.6875 C9.73160339 183.40601074 9.73160339 183.40601074 9.42590332 182.09863281 C8.79221143 179.39705865 8.14632794 176.6985758 7.5 174 C7.06559414 172.15774339 6.63199235 170.31529698 6.19921875 168.47265625 C5.14209594 163.97952306 4.07403689 159.48911873 3 155 C2.34 155 1.68 155 1 155 C0 146 0 146 -0.34375 142.03125 C-1.04472731 135.72245422 -2.59191443 129.60304088 -4.0625 123.4375 C-4.34416016 122.23802734 -4.62582031 121.03855469 -4.91601562 119.80273438 C-5.60600562 116.8673532 -6.30077009 113.93319129 -7 111 C-7.66 111 -8.32 111 -9 111 C-10.69832609 105.16200408 -11.25287193 100.06892629 -11 94 C-12.98 94.495 -12.98 94.495 -15 95 C-15.00423194 95.90613509 -15.00846388 96.81227018 -15.01282406 97.74586391 C-15.11598178 119.76088571 -15.22459687 141.77587462 -15.33933926 163.7908392 C-15.39469446 174.43696414 -15.44818017 185.08309243 -15.49731445 195.72924805 C-15.54012821 205.00489028 -15.586399 214.2805076 -15.63687855 223.5561114 C-15.66350219 228.4706622 -15.68835574 233.38520798 -15.70907402 238.29978752 C-15.72860572 242.9199677 -15.75273888 247.54010037 -15.78049088 252.16023827 C-15.78987975 253.86105744 -15.79754837 255.56188706 -15.80341911 257.26272202 C-15.81164925 259.57456896 -15.82591686 261.88629962 -15.84178162 264.19810486 C-15.84823417 265.49506759 -15.85468672 266.79203032 -15.8613348 268.12829494 C-16 271 -16 271 -17 272 C-35.48 272 -53.96 272 -73 272 C-73 182.9 -73 93.8 -73 2 C-48.91 1.67 -24.82 1.34 0 1 C0 0.67 0 0.34 0 0 Z M190 7 C190 94.12 190 181.24 190 271 C190.33 271 190.66 271 191 271 C191 183.88 191 96.76 191 7 C190.67 7 190.34 7 190 7 Z M102 11 C103 15 103 15 103 15 Z M101 15 C102 17 102 17 102 17 Z M19 36 C20 39 20 39 20 39 Z M90 65 C91 69 91 69 91 69 Z M-16 72 C-16 75.63 -16 79.26 -16 83 C-15.34 82.34 -14.68 81.68 -14 81 C-13.97691403 78.77871445 -13.97691403 78.77871445 -14.375 76.375 C-14.48585937 75.55773437 -14.59671875 74.74046875 -14.7109375 73.8984375 C-14.80632812 73.27195312 -14.90171875 72.64546875 -15 72 C-15.33 72 -15.66 72 -16 72 Z M132 74 C131.08247146 78.65169347 130.87270111 83.13536073 130.91770935 87.85873413 C130.92093848 88.63156852 130.92416761 89.40440292 130.92749459 90.20065653 C130.93952088 92.78014412 130.95890362 95.35952273 130.97827148 97.93896484 C130.98841945 99.79204068 130.99811256 101.64511905 131.00738525 103.49819946 C131.03381438 108.52251234 131.06660443 113.54676594 131.10053515 118.571033 C131.13492958 123.82407795 131.16347593 129.0771546 131.19264221 134.33023071 C131.24874589 144.27486214 131.31011015 154.21945387 131.37336355 164.16404212 C131.44512682 175.48679626 131.51102689 186.80958216 131.57643402 198.13237453 C131.71109785 221.42162422 131.85312617 244.71082434 132 268 C132.33 268 132.66 268 133 268 C133 203.98 133 139.96 133 74 C132.67 74 132.34 74 132 74 Z M-14 81 C-13 85 -13 85 -13 85 Z M130 81 C131 84 131 84 131 84 Z M-13 85 C-12 89 -12 89 -12 89 Z M31 89 C32 93 32 93 32 93 Z M-10 98 C-9 102 -9 102 -9 102 Z M34 102 C35 104 35 104 35 104 Z M-9 103 C-8 107 -8 107 -8 107 Z M-8 107 C-7 109 -7 109 -7 109 Z M36 113 C37 115 37 115 37 115 Z M121 121 C122 125 122 125 122 125 Z M120 125 C121 129 121 129 121 129 Z M119 130 C120 134 120 134 120 134 Z M118 134 C119 138 119 138 119 138 Z M1 146 C2 149 2 149 2 149 Z M112 160 C113 164 113 164 113 164 Z M50 173 C51 176 51 176 51 176 Z M51 176 C52 180 52 180 52 180 Z M106 187 C107 189 107 189 107 189 Z M13 198 C14 200 14 200 14 200 Z M60 201 C61 205 61 205 61 205 Z M14 203 C15 206 15 206 15 206 Z M102 204 C102 205.65 102 207.3 102 209 C102.33 209 102.66 209 103 209 C103 207.35 103 205.7 103 204 C102.67 204 102.34 204 102 204 Z M59 205 C58.67 206.98 58.34 208.96 58 211 C58.66 210.34 59.32 209.68 60 209 C59.6814823 206.89179203 59.6814823 206.89179203 59 205 Z M15 207 C16 209 16 209 16 209 Z M101 210 C102 213 102 213 102 213 Z M100 216 C101 218 101 218 101 218 Z M99 218 C100 220 100 220 100 220 Z M27 259 C28 262 28 262 28 262 Z " fill="#FEFEFE" transform="translate(161,91)"/>
<path d="M0 0 C0.33 0 0.66 0 1 0 C1 85.8 1 171.6 1 260 C0.67 260 0.34 260 0 260 C0 174.2 0 88.4 0 0 Z " fill="#FBFBFB" transform="translate(86,92)"/>
<path d="M0 0 C0.33 0 0.66 0 1 0 C1 55.77 1 111.54 1 169 C0.67 169 0.34 169 0 169 C0 113.23 0 57.46 0 0 Z " fill="#FEFEFE" transform="translate(146,193)"/>
<path d="M0 0 C27.72 0 55.44 0 84 0 C84 0.33 84 0.66 84 1 C56.28 1 28.56 1 0 1 C0 0.67 0 0.34 0 0 Z " fill="#FBFBFB" transform="translate(267,91)"/>
<path d="M0 0 C1.85865189 0.03330917 1.85865189 0.03330917 3.75485229 0.06729126 C4.77941528 0.08148354 4.77941528 0.08148354 5.82467651 0.09596252 C8.0866646 0.12969206 10.34811031 0.17779197 12.60983276 0.22598267 C14.1763771 0.25214451 15.74293661 0.27741194 17.30950928 0.30181885 C21.43609795 0.36852183 25.56236824 0.44740304 29.68869019 0.52877808 C33.89795698 0.60964766 38.10741076 0.67905914 42.31686401 0.74942017 C50.57880976 0.88921538 58.84045435 1.04186997 67.10202026 1.20254517 C67.10202026 1.53254517 67.10202026 1.86254517 67.10202026 2.20254517 C43.34202026 2.20254517 19.58202026 2.20254517 -4.89797974 2.20254517 C-2.89797974 0.20254517 -2.89797974 0.20254517 0 0 Z " fill="#FCFCFC" transform="translate(92.89797973632813,89.79745483398438)"/>
<path d="M0 0 C18.48 0 36.96 0 56 0 C56 0.33 56 0.66 56 1 C37.25257752 2.11951433 18.74256676 1.82399282 0 1 C0 0.67 0 0.34 0 0 Z " fill="#FDFDFD" transform="translate(192,364)"/>
<path d="M0 0 C18.48 0 36.96 0 56 0 C52.64754049 2.234973 51.69025414 2.22779701 47.79418945 2.13525391 C46.73331619 2.11508209 45.67244293 2.09491028 44.579422 2.0741272 C42.86368233 2.02583267 42.86368233 2.02583267 41.11328125 1.9765625 C39.35506294 1.93902359 39.35506294 1.93902359 37.56132507 1.90072632 C33.81142605 1.81844615 30.06204735 1.72188629 26.3125 1.625 C23.77280783 1.56676873 21.2330942 1.50946528 18.69335938 1.453125 C12.46195049 1.31285527 6.23090963 1.16085495 0 1 C0 0.67 0 0.34 0 0 Z " fill="#FDFDFD" transform="translate(88,364)"/>
<path d="M0 0 C0.33 0 0.66 0 1 0 C0.88490339 1.41750563 0.75746342 2.83401169 0.625 4.25 C0.55539062 5.03890625 0.48578125 5.8278125 0.4140625 6.640625 C-0.01507113 9.085877 -0.78600638 10.84836903 -2 13 C-1.85769192 11.58297487 -1.71099254 10.1663904 -1.5625 8.75 C-1.48128906 7.96109375 -1.40007812 7.1721875 -1.31640625 6.359375 C-1.02365007 4.17635361 -0.57935581 2.1226818 0 0 Z " fill="#FCFCFC" transform="translate(288,190)"/>
<path d="M0 0 C0.33 0 0.66 0 1 0 C1.33 2.97 1.66 5.94 2 9 C0.68 7.35 -0.64 5.7 -2 4 C-1.34 4 -0.68 4 0 4 C0 2.68 0 1.36 0 0 Z " fill="#FBFBFB" transform="translate(168,267)"/>
<path d="M0 0 C0.33 0 0.66 0 1 0 C1 3.63 1 7.26 1 11 C0.67 11 0.34 11 0 11 C0 7.37 0 3.74 0 0 Z " fill="#FBFBFB" transform="translate(86,353)"/>
<path d="M0 0 C0.93065133 2.60582371 1.14917407 3.64198224 0.0625 6.25 C-0.4634375 7.11625 -0.4634375 7.11625 -1 8 C-2 6 -2 6 -1.0625 2.875 C-0.5365625 1.451875 -0.5365625 1.451875 0 0 Z " fill="#FBFBFB" transform="translate(228,256)"/>
<path d="M0 0 C0.95904856 3.83619425 0.91892116 5.32431536 0 9 C-0.33 9 -0.66 9 -1 9 C-0.67 6.03 -0.34 3.06 0 0 Z " fill="#FBFBFB" transform="translate(240,201)"/>
<path d="M0 0 C0.33 0 0.66 0 1 0 C0.67 2.97 0.34 5.94 0 9 C-0.33 9 -0.66 9 -1 9 C-0.67 6.03 -0.34 3.06 0 0 Z " fill="#FCFCFC" transform="translate(245,178)"/>
<path d="M0 0 C2 2 2 2 2.125 5.125 C2.08375 6.07375 2.0425 7.0225 2 8 C0.23537317 4.91190305 0 3.76687864 0 0 Z " fill="#FCFCFC" transform="translate(182,131)"/>
<path d="M0 0 C0.33 0 0.66 0 1 0 C0.67 2.97 0.34 5.94 0 9 C-0.33 9 -0.66 9 -1 9 C-0.67 6.03 -0.34 3.06 0 0 Z " fill="#FCFCFC" transform="translate(256,128)"/>
<path d="M0 0 C0.33 0 0.66 0 1 0 C1.33 2.64 1.66 5.28 2 8 C0 6 0 6 -0.125 2.875 C-0.08375 1.92625 -0.0425 0.9775 0 0 Z " fill="#FCFCFC" transform="translate(179,315)"/>
<path d="M0 0 C1.42944945 2.35438733 2.08661261 3.48032433 1.625 6.25 C1.41875 6.8275 1.2125 7.405 1 8 C0.67 5.36 0.34 2.72 0 0 Z " fill="#F9F9F9" transform="translate(166,259)"/>
<path d="M0 0 C2 2 2 2 2.125 5.125 C2.08375 6.07375 2.0425 7.0225 2 8 C1.67 8 1.34 8 1 8 C0.67 5.36 0.34 2.72 0 0 Z " fill="#FCFCFC" transform="translate(207,242)"/>
<path d="M0 0 C0.66 1.32 1.32 2.64 2 4 C1.01 4.495 1.01 4.495 0 5 C0 3.35 0 1.7 0 0 Z " fill="#FCFCFC" transform="translate(216,280)"/>
<path d="M0 0 C0.33 0 0.66 0 1 0 C1 1.65 1 3.3 1 5 C0.34 4.67 -0.32 4.34 -1 4 C-0.67 2.68 -0.34 1.36 0 0 Z " fill="#FBFBFB" transform="translate(171,280)"/>
<path d="M0 0 C0.99 1.485 0.99 1.485 2 3 C1.34 3.66 0.68 4.32 0 5 C0 3.35 0 1.7 0 0 Z " fill="#FCFCFC" transform="translate(269,273)"/>
<path d="M0 0 C0.33 0 0.66 0 1 0 C1 1.65 1 3.3 1 5 C0.34 3.68 -0.32 2.36 -1 1 C-0.67 0.67 -0.34 0.34 0 0 Z " fill="#FCFCFC" transform="translate(165,254)"/>
<path d="M0 0 C0.33 0 0.66 0 1 0 C1 1.65 1 3.3 1 5 C0.34 3.68 -0.32 2.36 -1 1 C-0.67 0.67 -0.34 0.34 0 0 Z " fill="#FBFBFB" transform="translate(234,228)"/>
<path d="M0 0 C0.33 0 0.66 0 1 0 C1 1.65 1 3.3 1 5 C0.34 3.68 -0.32 2.36 -1 1 C-0.67 0.67 -0.34 0.34 0 0 Z " fill="#FDFDFD" transform="translate(156,215)"/>
<path d="M0 0 C0.66 0.66 1.32 1.32 2 2 C1.34 2.66 0.68 3.32 0 4 C0 2.68 0 1.36 0 0 Z " fill="#FCFCFC" transform="translate(251,353)"/>
<path d="M0 0 C0.33 0 0.66 0 1 0 C1 1.65 1 3.3 1 5 C0.67 5 0.34 5 0 5 C0 3.35 0 1.7 0 0 Z " fill="#FCFCFC" transform="translate(252,348)"/>
<path d="M0 0 C0.33 0 0.66 0 1 0 C1 1.65 1 3.3 1 5 C0.67 5 0.34 5 0 5 C0 3.35 0 1.7 0 0 Z " fill="#FDFDFD" transform="translate(185,341)"/>
<path d="M0 0 C0.33 0 0.66 0 1 0 C1 1.65 1 3.3 1 5 C0.67 5 0.34 5 0 5 C0 3.35 0 1.7 0 0 Z " fill="#FCFCFC" transform="translate(259,317)"/>
<path d="M0 0 C0.33 0 0.66 0 1 0 C1 1.65 1 3.3 1 5 C0.67 5 0.34 5 0 5 C0 3.35 0 1.7 0 0 Z " fill="#FCFCFC" transform="translate(176,302)"/>
<path d="M0 0 C0.33 1.32 0.66 2.64 1 4 C0.34 3.34 -0.32 2.68 -1 2 C-0.67 1.34 -0.34 0.68 0 0 Z " fill="#FBFBFB" transform="translate(225,269)"/>
<path d="M0 0 C0.33 0 0.66 0 1 0 C1 1.65 1 3.3 1 5 C0.67 5 0.34 5 0 5 C0 3.35 0 1.7 0 0 Z " fill="#FBFBFB" transform="translate(230,246)"/>
<path d="M0 0 C0.33 0 0.66 0 1 0 C1 1.65 1 3.3 1 5 C0.67 5 0.34 5 0 5 C0 3.35 0 1.7 0 0 Z " fill="#FCFCFC" transform="translate(232,237)"/>
<path d="M0 0 C0.66 0.66 1.32 1.32 2 2 C1.34 2.66 0.68 3.32 0 4 C0 2.68 0 1.36 0 0 Z " fill="#FAFAFA" transform="translate(205,232)"/>
<path d="M0 0 C0.33 0 0.66 0 1 0 C1 1.65 1 3.3 1 5 C0.67 5 0.34 5 0 5 C0 3.35 0 1.7 0 0 Z " fill="#FBFBFB" transform="translate(235,223)"/>
<path d="M0 0 C0.33 0 0.66 0 1 0 C1 1.65 1 3.3 1 5 C0.67 5 0.34 5 0 5 C0 3.35 0 1.7 0 0 Z " fill="#FCFCFC" transform="translate(203,223)"/>
<path d="M0 0 C0.33 0 0.66 0 1 0 C1 1.65 1 3.3 1 5 C0.67 5 0.34 5 0 5 C0 3.35 0 1.7 0 0 Z " fill="#FCFCFC" transform="translate(237,214)"/>
<path d="M0 0 C0.33 0 0.66 0 1 0 C1 1.65 1 3.3 1 5 C0.67 5 0.34 5 0 5 C0 3.35 0 1.7 0 0 Z " fill="#FDFDFD" transform="translate(201,214)"/>
<path d="M0 0 C0.33 1.32 0.66 2.64 1 4 C0.34 3.67 -0.32 3.34 -1 3 C-0.67 2.01 -0.34 1.02 0 0 Z " fill="#FBFBFB" transform="translate(154,207)"/>
<path d="M0 0 C0.33 0 0.66 0 1 0 C1 1.65 1 3.3 1 5 C0.67 5 0.34 5 0 5 C0 3.35 0 1.7 0 0 Z " fill="#FCFCFC" transform="translate(284,207)"/>
<path d="M0 0 C0.33 0 0.66 0 1 0 C1 1.65 1 3.3 1 5 C0.67 5 0.34 5 0 5 C0 3.35 0 1.7 0 0 Z " fill="#FBFBFB" transform="translate(241,196)"/>
<path d="M0 0 C0.33 0 0.66 0 1 0 C1 1.65 1 3.3 1 5 C0.67 5 0.34 5 0 5 C0 3.35 0 1.7 0 0 Z " fill="#FCFCFC" transform="translate(243,187)"/>
<path d="M0 0 C0.33 0 0.66 0 1 0 C1 1.65 1 3.3 1 5 C0.67 5 0.34 5 0 5 C0 3.35 0 1.7 0 0 Z " fill="#FCFCFC" transform="translate(289,185)"/>
<path d="M0 0 C0.33 0 0.66 0 1 0 C1 1.65 1 3.3 1 5 C0.67 5 0.34 5 0 5 C0 3.35 0 1.7 0 0 Z " fill="#FEFEFE" transform="translate(146,187)"/>
<path d="M0 0 C0.33 0 0.66 0 1 0 C1 1.65 1 3.3 1 5 C0.67 5 0.34 5 0 5 C0 3.35 0 1.7 0 0 Z " fill="#FDFDFD" transform="translate(191,170)"/>
<path d="M0 0 C0.33 0 0.66 0 1 0 C1 1.65 1 3.3 1 5 C0.67 5 0.34 5 0 5 C0 3.35 0 1.7 0 0 Z " fill="#FBFBFB" transform="translate(188,157)"/>
<path d="M0 0 C0.33 0 0.66 0 1 0 C1 1.65 1 3.3 1 5 C0.67 5 0.34 5 0 5 C0 3.35 0 1.7 0 0 Z " fill="#FCFCFC" transform="translate(186,148)"/>
<path d="M0 0 C0.33 0 0.66 0 1 0 C1 1.65 1 3.3 1 5 C0.67 5 0.34 5 0 5 C0 3.35 0 1.7 0 0 Z " fill="#FDFDFD" transform="translate(184,139)"/>
<path d="M0 0 C0.33 0 0.66 0 1 0 C1 1.65 1 3.3 1 5 C0.67 5 0.34 5 0 5 C0 3.35 0 1.7 0 0 Z " fill="#FDFDFD" transform="translate(178,113)"/>
<path d="M0 0 C0.33 0 0.66 0 1 0 C1 1.65 1 3.3 1 5 C0.67 5 0.34 5 0 5 C0 3.35 0 1.7 0 0 Z " fill="#FCFCFC" transform="translate(176,104)"/>
<path d="M0 0 C1 4 1 4 1 4 Z " fill="#FDFDFD" transform="translate(250,357)"/>
<path d="M0 0 C1 4 1 4 1 4 Z " fill="#FDFDFD" transform="translate(188,355)"/>
<path d="M0 0 C1 4 1 4 1 4 Z " fill="#FBFBFB" transform="translate(186,346)"/>
<path d="M0 0 C1 4 1 4 1 4 Z " fill="#FCFCFC" transform="translate(254,339)"/>
<path d="M0 0 C1 4 1 4 1 4 Z " fill="#FCFCFC" transform="translate(184,337)"/>
<path d="M0 0 C1 4 1 4 1 4 Z " fill="#FDFDFD" transform="translate(255,335)"/>
<path d="M0 0 C1 4 1 4 1 4 Z " fill="#FCFCFC" transform="translate(257,326)"/>
<path d="M0 0 C1 4 1 4 1 4 Z " fill="#FDFDFD" transform="translate(182,328)"/>
<path d="M0 0 C1 4 1 4 1 4 Z " fill="#FBFBFB" transform="translate(181,324)"/>
<path d="M0 0 C1 4 1 4 1 4 Z " fill="#FDFDFD" transform="translate(258,322)"/>
<path d="M0 0 C1 4 1 4 1 4 Z " fill="#FBFBFB" transform="translate(260,313)"/>
<path d="M0 0 C1 4 1 4 1 4 Z " fill="#FBFBFB" transform="translate(178,311)"/>
<path d="M0 0 C1 4 1 4 1 4 Z " fill="#FBFBFB" transform="translate(177,307)"/>
<path d="M0 0 C1 4 1 4 1 4 Z " fill="#FCFCFC" transform="translate(265,291)"/>
<path d="M0 0 C1 4 1 4 1 4 Z " fill="#FCFCFC" transform="translate(218,289)"/>
<path d="M0 0 C1 4 1 4 1 4 Z " fill="#FCFCFC" transform="translate(217,285)"/>
<path d="M0 0 C1 4 1 4 1 4 Z " fill="#FBFBFB" transform="translate(172,285)"/>
<path d="M0 0 C1 4 1 4 1 4 Z " fill="#FBFBFB" transform="translate(222,283)"/>
<path d="M0 0 C1 4 1 4 1 4 Z " fill="#FCFCFC" transform="translate(267,282)"/>
<path d="M0 0 C1 4 1 4 1 4 Z " fill="#FBFBFB" transform="translate(170,276)"/>
<path d="M0 0 C1 4 1 4 1 4 Z " fill="#FDFDFD" transform="translate(215,276)"/>
<path d="M0 0 C1 4 1 4 1 4 Z " fill="#FDFDFD" transform="translate(214,272)"/>
<path d="M0 0 C1 4 1 4 1 4 Z " fill="#FCFCFC" transform="translate(272,260)"/>
<path d="M0 0 C1 4 1 4 1 4 Z " fill="#FCFCFC" transform="translate(210,254)"/>
<path d="M0 0 C1 4 1 4 1 4 Z " fill="#FBFBFB" transform="translate(164,250)"/>
<path d="M0 0 C1 4 1 4 1 4 Z " fill="#FDFDFD" transform="translate(275,247)"/>
<path d="M0 0 C1 4 1 4 1 4 Z " fill="#FBFBFB" transform="translate(163,246)"/>
<path d="M0 0 C1 4 1 4 1 4 Z " fill="#FCFCFC" transform="translate(276,243)"/>
<path d="M0 0 C1 4 1 4 1 4 Z " fill="#FCFCFC" transform="translate(277,238)"/>
<path d="M0 0 C1 4 1 4 1 4 Z " fill="#FCFCFC" transform="translate(278,234)"/>
<path d="M0 0 C1 4 1 4 1 4 Z " fill="#FCFCFC" transform="translate(233,233)"/>
<path d="M0 0 C1 4 1 4 1 4 Z " fill="#FBFBFB" transform="translate(160,233)"/>
<path d="M0 0 C1 4 1 4 1 4 Z " fill="#FCFCFC" transform="translate(204,228)"/>
<path d="M0 0 C1 4 1 4 1 4 Z " fill="#FDFDFD" transform="translate(159,228)"/>
<path d="M0 0 C1 4 1 4 1 4 Z " fill="#FCFCFC" transform="translate(158,224)"/>
<path d="M0 0 C1 4 1 4 1 4 Z " fill="#FAFAFA" transform="translate(236,219)"/>
<path d="M0 0 C1 4 1 4 1 4 Z " fill="#FBFBFB" transform="translate(157,220)"/>
<path d="M0 0 C1 4 1 4 1 4 Z " fill="#FCFCFC" transform="translate(202,219)"/>
<path d="M0 0 C1 4 1 4 1 4 Z " fill="#FCFCFC" transform="translate(155,211)"/>
<path d="M0 0 C1 4 1 4 1 4 Z " fill="#FCFCFC" transform="translate(238,210)"/>
<path d="M0 0 C1 4 1 4 1 4 Z " fill="#FCFCFC" transform="translate(200,210)"/>
<path d="M0 0 C1 4 1 4 1 4 Z " fill="#FCFCFC" transform="translate(199,206)"/>
<path d="M0 0 C1 4 1 4 1 4 Z " fill="#FCFCFC" transform="translate(285,203)"/>
<path d="M0 0 C1 4 1 4 1 4 Z " fill="#FCFCFC" transform="translate(153,202)"/>
<path d="M0 0 C1 4 1 4 1 4 Z " fill="#FDFDFD" transform="translate(197,197)"/>
<path d="M0 0 C1 4 1 4 1 4 Z " fill="#FBFBFB" transform="translate(242,192)"/>
<path d="M0 0 C1 4 1 4 1 4 Z " fill="#F9F9F9" transform="translate(149,185)"/>
<path d="M0 0 C1 4 1 4 1 4 Z " fill="#FDFDFD" transform="translate(194,184)"/>
<path d="M0 0 C1 4 1 4 1 4 Z " fill="#FCFCFC" transform="translate(290,181)"/>
<path d="M0 0 C1 4 1 4 1 4 Z " fill="#FDFDFD" transform="translate(246,174)"/>
<path d="M0 0 C1 4 1 4 1 4 Z " fill="#FCFCFC" transform="translate(248,165)"/>
<path d="M0 0 C1 4 1 4 1 4 Z " fill="#FDFDFD" transform="translate(190,166)"/>
<path d="M0 0 C1 4 1 4 1 4 Z " fill="#FCFCFC" transform="translate(252,147)"/>
<path d="M0 0 C1 4 1 4 1 4 Z " fill="#FCFCFC" transform="translate(254,138)"/>
<path d="M0 0 C1 4 1 4 1 4 Z " fill="#FDFDFD" transform="translate(257,124)"/>
<path d="M0 0 C1 4 1 4 1 4 Z " fill="#FDFDFD" transform="translate(179,118)"/>
<path d="M0 0 C1 4 1 4 1 4 Z " fill="#FCFCFC" transform="translate(259,115)"/>
<path d="M0 0 C1 4 1 4 1 4 Z " fill="#FDFDFD" transform="translate(260,110)"/>
<path d="M0 0 C1 4 1 4 1 4 Z " fill="#FCFCFC" transform="translate(175,100)"/>
<path d="M0 0 C1 4 1 4 1 4 Z " fill="#FDFDFD" transform="translate(174,96)"/>
<path d="" fill="#FBFBFB" transform="translate(0,0)"/>
<path d="" fill="#FDFDFD" transform="translate(0,0)"/>
<path d="" fill="#FDFDFD" transform="translate(0,0)"/>
<path d="M0 0 C2 1 2 1 2 1 Z " fill="#F5F5F5" transform="translate(149,361)"/>
<path d="" fill="#FCFCFC" transform="translate(0,0)"/>
<path d="M0 0 C2 1 2 1 2 1 Z " fill="#FAFAFA" transform="translate(160,246)"/>
<path d="" fill="#FCFCFC" transform="translate(0,0)"/>
<path d="" fill="#FCFCFC" transform="translate(0,0)"/>
<path d="" fill="#F2F2F2" transform="translate(0,0)"/>
<path d="" fill="#F8F8F8" transform="translate(0,0)"/>
<path d="" fill="#FAFAFA" transform="translate(0,0)"/>
<path d="" fill="#FAFAFA" transform="translate(0,0)"/>
<path d="" fill="#FBFBFB" transform="translate(0,0)"/>
<path d="" fill="#FDFDFD" transform="translate(0,0)"/>
<path d="" fill="#F2F2F2" transform="translate(0,0)"/>
<path d="" fill="#E7E7E7" transform="translate(0,0)"/>
<path d="" fill="#FEFEFE" transform="translate(0,0)"/>
<path d="" fill="#F5F5F5" transform="translate(0,0)"/>
<path d="" fill="#F7F7F7" transform="translate(0,0)"/>
<path d="" fill="#FBFBFB" transform="translate(0,0)"/>
<path d="" fill="#E7E7E7" transform="translate(0,0)"/>
<path d="" fill="#E8E8E8" transform="translate(0,0)"/>
<path d="" fill="#FBFBFB" transform="translate(0,0)"/>
<path d="" fill="#FAFAFA" transform="translate(0,0)"/>
<path d="" fill="#FCFCFC" transform="translate(0,0)"/>
<path d="" fill="#FBFBFB" transform="translate(0,0)"/>
<path d="" fill="#FCFCFC" transform="translate(0,0)"/>
<path d="" fill="#E7E7E7" transform="translate(0,0)"/>
<path d="" fill="#FAFAFA" transform="translate(0,0)"/>
<path d="" fill="#E7E7E7" transform="translate(0,0)"/>
<path d="" fill="#FAFAFA" transform="translate(0,0)"/>
<path d="" fill="#F8F8F8" transform="translate(0,0)"/>
<path d="" fill="#E8E8E8" transform="translate(0,0)"/>
<path d="" fill="#E8E8E8" transform="translate(0,0)"/>
<path d="" fill="#FBFBFB" transform="translate(0,0)"/>
<path d="" fill="#F5F5F5" transform="translate(0,0)"/>
<path d="" fill="#FAFAFA" transform="translate(0,0)"/>
<path d="" fill="#FAFAFA" transform="translate(0,0)"/>
<path d="" fill="#E7E7E7" transform="translate(0,0)"/>
<path d="" fill="#FBFBFB" transform="translate(0,0)"/>
<path d="" fill="#F1F1F1" transform="translate(0,0)"/>
<path d="" fill="#F7F7F7" transform="translate(0,0)"/>
<path d="" fill="#FAFAFA" transform="translate(0,0)"/>
<path d="" fill="#FAFAFA" transform="translate(0,0)"/>
<path d="" fill="#FBFBFB" transform="translate(0,0)"/>
<path d="" fill="#F7F7F7" transform="translate(0,0)"/>
<path d="" fill="#F1F1F1" transform="translate(0,0)"/>
<path d="" fill="#FBFBFB" transform="translate(0,0)"/>
<path d="" fill="#F7F7F7" transform="translate(0,0)"/>
<path d="" fill="#F5F5F5" transform="translate(0,0)"/>
<path d="" fill="#F4F4F4" transform="translate(0,0)"/>
<path d="" fill="#F4F4F4" transform="translate(0,0)"/>
<path d="" fill="#F1F1F1" transform="translate(0,0)"/>
<path d="" fill="#FAFAFA" transform="translate(0,0)"/>
<path d="" fill="#F6F6F6" transform="translate(0,0)"/>
<path d="" fill="#F9F9F9" transform="translate(0,0)"/>
<path d="" fill="#F4F4F4" transform="translate(0,0)"/>
<path d="" fill="#FAFAFA" transform="translate(0,0)"/>
<path d="" fill="#F1F1F1" transform="translate(0,0)"/>
<path d="" fill="#E7E7E7" transform="translate(0,0)"/>
<path d="" fill="#FAFAFA" transform="translate(0,0)"/>
<path d="" fill="#F1F1F1" transform="translate(0,0)"/>
<path d="" fill="#FAFAFA" transform="translate(0,0)"/>
<path d="" fill="#F1F1F1" transform="translate(0,0)"/>
<path d="" fill="#F1F1F1" transform="translate(0,0)"/>
<path d="" fill="#E7E7E7" transform="translate(0,0)"/>
<path d="" fill="#FDFDFD" transform="translate(0,0)"/>
<path d="" fill="#E7E7E7" transform="translate(0,0)"/>
<path d="" fill="#F9F9F9" transform="translate(0,0)"/>
<path d="" fill="#FCFCFC" transform="translate(0,0)"/>
<path d="" fill="#F1F1F1" transform="translate(0,0)"/>
<path d="" fill="#E7E7E7" transform="translate(0,0)"/>
<path d="" fill="#E7E7E7" transform="translate(0,0)"/>
<path d="" fill="#F7F7F7" transform="translate(0,0)"/>
<path d="" fill="#F9F9F9" transform="translate(0,0)"/>
<path d="" fill="#F8F8F8" transform="translate(0,0)"/>
<path d="" fill="#F9F9F9" transform="translate(0,0)"/>
</svg>
